<svg xmlns="http://www.w3.org/2000/svg" viewBox="0 0 453.76 122.32"><defs><style>.cls-1{fill:#001944;}.cls-2{fill:none;}</style></defs><g id="LOGO"><path class="cls-1" d="M240.91,32.88a37,37,0,0,0-19-4.9A36.59,36.59,0,0,0,203,32.88a34.7,34.7,0,0,0-13,13.26,37.23,37.23,0,0,0-4.64,18.37,37.1,37.1,0,0,0,4.68,18.39,34.61,34.61,0,0,0,13,13.26,36.49,36.49,0,0,0,18.8,4.88,37.26,37.26,0,0,0,19.06-4.88A34.83,34.83,0,0,0,254,82.94a36.87,36.87,0,0,0,4.71-18.43A36.76,36.76,0,0,0,254,46.14,35.08,35.08,0,0,0,240.91,32.88ZM205.6,64.51C205.6,59.76,208,46.8,222,46.8s16.45,13,16.45,17.71c0,6.51-3.81,17.7-16.45,17.7C208,82.21,205.6,69.25,205.6,64.51Z"/><path class="cls-1" d="M325.91,33c-20.72-12.44-35.94,1.79-38,5.9V30.16H268.53v92.16H289V99l-.4-8.29c3,5.34,17.85,17,37.39,5.51,13.52-8,15.91-25,15.91-31.69C341.85,45.6,331,36,325.91,33ZM305.25,82.34A16.27,16.27,0,0,1,291,73.75a19.86,19.86,0,0,1-.07-18.23c1.46-2.72,5.87-8.78,14.19-8.78,8.85,0,16.58,6.54,16.58,17.77C321.7,73.51,316.13,82.34,305.25,82.34Z"/><rect class="cls-1" x="351.67" y="30.16" width="20.42" height="68.68"/><path class="cls-1" d="M368.48,1.49A13.75,13.75,0,0,0,361.88,0a13.37,13.37,0,0,0-6.5,1.49,10.39,10.39,0,0,0-4.14,4,11.13,11.13,0,0,0-1.43,5.57,11.1,11.1,0,0,0,1.43,5.57,10.13,10.13,0,0,0,4.14,4,13.44,13.44,0,0,0,6.43,1.46q5.78,0,9-3.12a10.5,10.5,0,0,0,3.25-7.89,11.13,11.13,0,0,0-1.43-5.57A10.34,10.34,0,0,0,368.48,1.49Z"/><path class="cls-1" d="M161.05,30.16V10.21l-20.42.13V30.16H127.44V47.53h13.19V83.25c0,12.18,9,25,39,13l-3.93-16.13c-1.19.6-14.64,7.06-14.73-3.8V47.53h18.66V30.16Z"/><path class="cls-1" d="M448,78.32V57.61c0-27.45-21.93-29.57-32-29.57-10.92,0-30.89,4.48-30.89,26.79h19.22c0-3.1,1.38-9.75,11.94-9.75,12.68,0,11.4,10.54,11.4,10.54l-10.81.93c-10.6,1-18.71,3.64-24.79,7.09-6.34,3.6-13.22,16.82-5.8,28.28,5.19,8,15.41,9.18,19.52,9.18,4.64,0,15.81-1.16,22.81-10.94,1.66,15.9,21.73,10.13,25.11,8.33V82.37S448,83.76,448,78.32Zm-28,4.29c-2.43,1.33-8.32,3.79-14.09.39-1.7-1-5.36-7.69,1.63-10.74,6.43-2.8,20.08-3.44,20.08-3.44A14.28,14.28,0,0,1,420,82.61Z"/><path class="cls-1" d="M89.11,46.87A17.24,17.24,0,0,1,98,49.12a13.26,13.26,0,0,1,5.64,7h20.68a37,37,0,0,0-6.59-14.45,33.87,33.87,0,0,0-12.17-10A36.71,36.71,0,0,0,89,28h-.47v18.9Z"/><path class="cls-2" d="M22.31,55.32a19.65,19.65,0,0,0-2.09,9.18,19.66,19.66,0,0,0,2.09,9.19A15.52,15.52,0,0,0,28.14,80a16.15,16.15,0,0,0,8.52,2.26A16.12,16.12,0,0,0,45.18,80,15.55,15.55,0,0,0,51,73.69,19.66,19.66,0,0,0,53.1,64.5,19.65,19.65,0,0,0,51,55.32a15.55,15.55,0,0,0-5.84-6.26,16.22,16.22,0,0,0-8.52-2.26,16.24,16.24,0,0,0-8.52,2.26A15.52,15.52,0,0,0,22.31,55.32Z"/><path class="cls-2" d="M22.31,55.32a19.65,19.65,0,0,0-2.09,9.18,19.66,19.66,0,0,0,2.09,9.19A15.52,15.52,0,0,0,28.14,80a16.15,16.15,0,0,0,8.52,2.26A16.12,16.12,0,0,0,45.18,80,15.55,15.55,0,0,0,51,73.69,19.66,19.66,0,0,0,53.1,64.5,19.65,19.65,0,0,0,51,55.32a15.55,15.55,0,0,0-5.84-6.26,16.22,16.22,0,0,0-8.52-2.26,16.24,16.24,0,0,0-8.52,2.26A15.52,15.52,0,0,0,22.31,55.32Z"/><path class="cls-1" d="M17.67,96.16l.52.28L37.65,82.18c-.33,0-.65,0-1,0a17.74,17.74,0,0,1-3.46-.33l-16,14Z"/><path class="cls-1" d="M10.18,90.32,21,70.52A20.94,20.94,0,0,1,20.23,65L9.43,89.51C9.68,89.78,9.92,90.06,10.18,90.32Z"/><path class="cls-1" d="M15.5,94.79l.85.54L32,81.6a14.75,14.75,0,0,1-2.84-1.09Z"/><path class="cls-1" d="M28.09,100.17c1.25.26,2.51.47,3.81.61l29-8.45c.76-.66,1.5-1.33,2.2-2A21.39,21.39,0,0,0,68,84.64Z"/><path class="cls-1" d="M34.77,101c.56,0,1.12.05,1.69.05a37.21,37.21,0,0,0,19.06-4.88A36.38,36.38,0,0,0,58.83,94Z"/><path class="cls-1" d="M3.64,80.89l6.49-42.15a34.85,34.85,0,0,0-5.49,7.4c-.14.26-.27.53-.4.79l-2,30.57A33.21,33.21,0,0,0,3.64,80.89Z"/><path class="cls-1" d="M24.2,99.13c.71.24,1.43.45,2.16.64l42.5-16.53a33.48,33.48,0,0,0,3.08-7.64Z"/><path class="cls-1" d="M28.14,49.06a15.8,15.8,0,0,1,5.79-2l2.87-5.24V28h-.29L26.83,50C27.26,49.66,27.68,49.34,28.14,49.06Z"/><path class="cls-1" d="M4.67,82.9c.27.48.55.93.83,1.39L18.16,32.6l-.53.28a36.38,36.38,0,0,0-6.31,4.71L4.42,82.4C4.5,82.57,4.58,82.74,4.67,82.9Z"/><path class="cls-1" d="M53.14,63.07,88.71,31.88V28A37.33,37.33,0,0,0,77.9,29.62L54.41,54.15A39.41,39.41,0,0,0,53.14,63.07Z"/><path class="cls-1" d="M13.13,93,25.36,77.77a15,15,0,0,1-1.81-2.07L12.4,92.4Z"/><path class="cls-1" d="M14.69,94.19,28.26,80,28.14,80a16,16,0,0,1-2.05-1.49L13.91,93.63C14.16,93.83,14.43,94,14.69,94.19Z"/><path class="cls-1" d="M21.42,98.05q.73.32,1.5.6L72.25,74.32a41.34,41.34,0,0,0,1-7.74Z"/><path class="cls-1" d="M21.47,71.81,10.92,91c.24.23.48.47.72.69L23,74.78c-.22-.36-.46-.71-.66-1.09A18.57,18.57,0,0,1,21.47,71.81Z"/><path class="cls-1" d="M7.89,87.7c.27.33.53.68.8,1L20.33,62.27a18.75,18.75,0,0,1,2-7,16.08,16.08,0,0,1,2.75-3.8L35.41,28a39.29,39.29,0,0,0-7.55.89Z"/><path class="cls-1" d="M6.25,85.45c.3.44.59.88.91,1.31l19.55-57.6A35.41,35.41,0,0,0,19.34,32Z"/><path class="cls-1" d="M3.07,49.36A37.66,37.66,0,0,0,0,64.5,38.63,38.63,0,0,0,1.4,74.9Z"/><path class="cls-1" d="M35.15,46.88c.55-.05,1.1-.08,1.65-.08V43.87Z"/><path class="cls-1" d="M63.11,38.77A38.2,38.2,0,0,0,55,52L75.83,30.33a33.76,33.76,0,0,0-5.35,2.58A35.41,35.41,0,0,0,63.11,38.77Z"/><path class="cls-1" d="M75,56,51.07,73.58a.37.37,0,0,0,0,.11A15.55,15.55,0,0,1,45.18,80a15.28,15.28,0,0,1-5.55,2L19.16,97l1.15.58,53-32.16c0-.3,0-.58,0-.89A20.15,20.15,0,0,1,75,56Z"/><path class="cls-1" d="M87.35,47c.45,0,.9-.09,1.36-.1V46Z"/><path class="cls-1" d="M53.11,64.43s0,0,0,.08a20.49,20.49,0,0,1-1.23,7.24l24.3-17.81a15,15,0,0,1,5.15-5,15.18,15.18,0,0,1,3.77-1.56l3.62-2.66V33.21Z"/><path class="cls-1" d="M103.63,71.8a14,14,0,0,1-5.54,8C95,82,82.87,86.12,75.52,74.05c-1.6-2.62-2.19-5.88-2.19-9.55h0a36.74,36.74,0,0,0-4.71-18.36,35.35,35.35,0,0,0-5.51-7.37,36,36,0,0,0-7.59-5.89A36.84,36.84,0,0,0,36.66,28V46.8a16.22,16.22,0,0,1,8.52,2.26A15.55,15.55,0,0,1,51,55.32,19.65,19.65,0,0,1,53.1,64.5h0a36.63,36.63,0,0,0,10,25.79A35.2,35.2,0,0,0,89,101c16.86,0,31.2-10.05,35.27-29.24Z"/></g><g id="ZONE_PROTECTION"><rect class="cls-2" width="453.76" height="122.32"/><rect class="cls-2" x="-73.24" y="-73.06" width="600.32" height="268.43"/><path class="cls-2" d="M509.28,54.16a39.07,39.07,0,0,0-37.89,0,34.77,34.77,0,0,0-13,13.26,38.58,38.58,0,0,0,0,36.76,34.47,34.47,0,0,0,13,13.26,36.49,36.49,0,0,0,18.8,4.88,37.24,37.24,0,0,0,19.06-4.88,34.76,34.76,0,0,0,13.09-13.22,38.3,38.3,0,0,0,0-36.8A35.15,35.15,0,0,0,509.28,54.16ZM474,85.79c0-4.75,2.44-17.7,16.45-17.7s16.44,13,16.44,17.7c0,6.51-3.81,17.7-16.44,17.7C476.41,103.49,474,90.54,474,85.79Z"/><path class="cls-2" d="M-17.72,54.16a36.9,36.9,0,0,0-19-4.9,36.62,36.62,0,0,0-18.9,4.9,34.74,34.74,0,0,0-13,13.26,37.23,37.23,0,0,0-4.64,18.37,37.19,37.19,0,0,0,4.67,18.39,34.57,34.57,0,0,0,13,13.26,36.46,36.46,0,0,0,18.79,4.88,37.21,37.21,0,0,0,19.06-4.88,34.79,34.79,0,0,0,13.1-13.22A37,37,0,0,0,.08,85.79a36.85,36.85,0,0,0-4.7-18.37A35.18,35.18,0,0,0-17.72,54.16ZM-53,85.79c0-4.75,2.44-17.7,16.44-17.7s16.44,13,16.44,17.7c0,6.51-3.81,17.7-16.44,17.7C-50.58,103.49-53,90.54-53,85.79Z"/></g></svg>