<svg xmlns="http://www.w3.org/2000/svg" viewBox="0 0 453.76 121.87"><defs><style>.cls-1{fill:#fff;}.cls-2{fill:none;}</style></defs><g id="LOGO"><path class="cls-1" d="M240.91,32.43a37,37,0,0,0-19-4.9A36.59,36.59,0,0,0,203,32.43a34.7,34.7,0,0,0-13,13.26,37.23,37.23,0,0,0-4.64,18.37,37.1,37.1,0,0,0,4.68,18.39,34.47,34.47,0,0,0,13,13.26,36.49,36.49,0,0,0,18.8,4.88,37.26,37.26,0,0,0,19.06-4.88A34.76,34.76,0,0,0,254,82.49a36.87,36.87,0,0,0,4.71-18.43A36.76,36.76,0,0,0,254,45.69,35.08,35.08,0,0,0,240.91,32.43ZM205.6,64.06c0-4.75,2.44-17.7,16.44-17.7s16.45,13,16.45,17.7c0,6.51-3.81,17.7-16.45,17.7C208,81.76,205.6,68.81,205.6,64.06Z"/><path class="cls-1" d="M325.91,32.5c-20.72-12.43-35.94,1.79-38,5.9V29.72H268.53v92.15H289V98.53l-.4-8.29c3,5.35,17.85,17,37.39,5.51,13.52-8,15.91-25,15.91-31.69C341.85,45.15,331,35.58,325.91,32.5ZM305.25,81.89A16.28,16.28,0,0,1,291,73.31a19.88,19.88,0,0,1-.07-18.24c1.46-2.71,5.87-8.78,14.19-8.78,8.85,0,16.58,6.55,16.58,17.77C321.7,73.06,316.13,81.89,305.25,81.89Z"/><rect class="cls-1" x="351.67" y="29.72" width="20.42" height="68.68"/><path class="cls-1" d="M368.48,1a13.75,13.75,0,0,0-6.6-1.49A13.37,13.37,0,0,0,355.38,1a10.39,10.39,0,0,0-4.14,4,11.13,11.13,0,0,0-1.43,5.57,11.1,11.1,0,0,0,1.43,5.57,10.13,10.13,0,0,0,4.14,4,13.44,13.44,0,0,0,6.43,1.46q5.78,0,9-3.12a10.5,10.5,0,0,0,3.25-7.89,11.13,11.13,0,0,0-1.43-5.57A10.34,10.34,0,0,0,368.48,1Z"/><path class="cls-1" d="M161.05,29.72v-20l-20.42.13V29.72H127.44V47.09h13.19V82.8c0,12.18,9,25,39,13l-3.93-16.13c-1.19.6-14.64,7.06-14.73-3.8V47.09h18.66V29.72Z"/><path class="cls-1" d="M448,77.87V57.16c0-27.44-21.93-29.57-32-29.57-10.92,0-30.89,4.48-30.89,26.79h19.22c0-3.1,1.38-9.75,11.94-9.75,12.68,0,11.4,10.54,11.4,10.54l-10.81.93c-10.6,1-18.71,3.64-24.79,7.1-6.34,3.59-13.22,16.81-5.8,28.27,5.19,8,15.41,9.18,19.52,9.18,4.64,0,15.81-1.15,22.81-10.94,1.66,15.9,21.73,10.13,25.11,8.33V81.92S448,83.31,448,77.87Zm-28,4.29c-2.43,1.33-8.32,3.8-14.09.39-1.7-1-5.36-7.69,1.63-10.74,6.43-2.8,20.08-3.44,20.08-3.44A14.28,14.28,0,0,1,420,82.16Z"/><path class="cls-1" d="M89.11,46.42A17.24,17.24,0,0,1,98,48.67a13.24,13.24,0,0,1,5.64,7h20.68a36.93,36.93,0,0,0-6.59-14.46,33.87,33.87,0,0,0-12.17-10A36.7,36.7,0,0,0,89,27.53h-.47V46.43Z"/><path class="cls-2" d="M22.31,54.87a19.66,19.66,0,0,0-2.09,9.19,19.65,19.65,0,0,0,2.09,9.18,15.52,15.52,0,0,0,5.83,6.26,16.15,16.15,0,0,0,8.52,2.26,16.12,16.12,0,0,0,8.52-2.26A15.55,15.55,0,0,0,51,73.24a19.65,19.65,0,0,0,2.08-9.18A19.66,19.66,0,0,0,51,54.87a15.55,15.55,0,0,0-5.84-6.26,16.22,16.22,0,0,0-8.52-2.26,16.24,16.24,0,0,0-8.52,2.26A15.52,15.52,0,0,0,22.31,54.87Z"/><path class="cls-2" d="M22.31,54.87a19.66,19.66,0,0,0-2.09,9.19,19.65,19.65,0,0,0,2.09,9.18,15.52,15.52,0,0,0,5.83,6.26,16.15,16.15,0,0,0,8.52,2.26,16.12,16.12,0,0,0,8.52-2.26A15.55,15.55,0,0,0,51,73.24a19.65,19.65,0,0,0,2.08-9.18A19.66,19.66,0,0,0,51,54.87a15.55,15.55,0,0,0-5.84-6.26,16.22,16.22,0,0,0-8.52-2.26,16.24,16.24,0,0,0-8.52,2.26A15.52,15.52,0,0,0,22.31,54.87Z"/><path class="cls-1" d="M10.18,89.87,21,70.07a20.94,20.94,0,0,1-.81-5.55L9.43,89.06C9.68,89.33,9.92,89.61,10.18,89.87Z"/><path class="cls-1" d="M17.67,95.71l.52.28L37.65,81.73c-.33,0-.65,0-1,0a17.74,17.74,0,0,1-3.46-.33l-16,14C17.38,95.53,17.52,95.63,17.67,95.71Z"/><path class="cls-1" d="M15.5,94.34c.28.19.57.36.85.54L32,81.15a15.41,15.41,0,0,1-2.84-1.08Z"/><path class="cls-1" d="M28.09,99.72c1.25.26,2.51.47,3.81.61l29-8.45c.76-.65,1.5-1.33,2.2-2A21.39,21.39,0,0,0,68,84.19Z"/><path class="cls-1" d="M34.77,100.54c.56,0,1.12,0,1.69,0a37.21,37.21,0,0,0,19.06-4.88,36.38,36.38,0,0,0,3.31-2.18Z"/><path class="cls-1" d="M13.13,92.56,25.36,77.32a15.52,15.52,0,0,1-1.81-2.06L12.4,92Z"/><path class="cls-1" d="M4.67,82.45c.27.48.55.93.83,1.39L18.16,32.15l-.53.28a35.92,35.92,0,0,0-6.31,4.72L4.42,82C4.5,82.12,4.58,82.29,4.67,82.45Z"/><path class="cls-1" d="M53.14,62.62,88.71,31.43V27.54A37.33,37.33,0,0,0,77.9,29.17L54.41,53.7A39.41,39.41,0,0,0,53.14,62.62Z"/><path class="cls-1" d="M3.64,80.44l6.49-42.15a34.85,34.85,0,0,0-5.49,7.4c-.14.26-.27.53-.4.79l-2,30.57A33.21,33.21,0,0,0,3.64,80.44Z"/><path class="cls-1" d="M28.14,48.61a15.8,15.8,0,0,1,5.79-2l2.87-5.24V27.53h-.29l-9.68,22C27.26,49.21,27.68,48.89,28.14,48.61Z"/><path class="cls-1" d="M24.2,98.68c.71.24,1.43.45,2.16.64L68.86,82.8a33.57,33.57,0,0,0,3.08-7.65Z"/><path class="cls-1" d="M21.47,71.36,10.92,90.59c.24.23.48.47.72.69L23,74.33c-.22-.36-.46-.71-.66-1.09A18.57,18.57,0,0,1,21.47,71.36Z"/><path class="cls-1" d="M35.15,46.43c.55,0,1.1-.08,1.65-.08V43.42Z"/><path class="cls-1" d="M7.89,87.25c.27.34.53.68.8,1L20.33,61.82a18.75,18.75,0,0,1,2-7,16.08,16.08,0,0,1,2.75-3.8L35.41,27.56a39.29,39.29,0,0,0-7.55.9Z"/><path class="cls-1" d="M3.07,48.91A37.67,37.67,0,0,0,0,64.06,38.61,38.61,0,0,0,1.4,74.45Z"/><path class="cls-1" d="M6.25,85c.3.44.59.88.91,1.31l19.55-57.6a35.41,35.41,0,0,0-7.37,2.79Z"/><path class="cls-1" d="M63.11,38.33A38,38,0,0,0,55,51.59L75.83,29.88a34.65,34.65,0,0,0-5.35,2.58A35.13,35.13,0,0,0,63.11,38.33Z"/><path class="cls-1" d="M75,55.58,51.07,73.13a.37.37,0,0,0,0,.11,15.55,15.55,0,0,1-5.84,6.26,15.28,15.28,0,0,1-5.55,2l-20.47,15,1.15.58,53-32.16c0-.29,0-.58,0-.88A20.08,20.08,0,0,1,75,55.58Z"/><path class="cls-1" d="M87.35,46.53c.45-.05.9-.09,1.36-.1v-.9Z"/><path class="cls-1" d="M53.11,64s0,.05,0,.08a20.49,20.49,0,0,1-1.23,7.24l24.3-17.81a15,15,0,0,1,5.15-5A15.18,15.18,0,0,1,85.09,47l3.62-2.66V32.76Z"/><path class="cls-1" d="M14.69,93.75,28.26,79.57l-.12-.07A16,16,0,0,1,26.09,78L13.91,93.18C14.16,93.38,14.43,93.56,14.69,93.75Z"/><path class="cls-1" d="M21.42,97.6q.73.32,1.5.6L72.25,73.87a41.34,41.34,0,0,0,1-7.74Z"/><path class="cls-1" d="M103.63,71.35a14,14,0,0,1-5.54,8C95,81.53,82.87,85.67,75.52,73.6c-1.6-2.61-2.19-5.88-2.19-9.54h0a36.76,36.76,0,0,0-4.71-18.37,35.28,35.28,0,0,0-5.51-7.36,35.71,35.71,0,0,0-7.59-5.9,36.84,36.84,0,0,0-18.86-4.9V46.35a16.22,16.22,0,0,1,8.52,2.26A15.55,15.55,0,0,1,51,54.87a19.66,19.66,0,0,1,2.08,9.19h0a36.62,36.62,0,0,0,10,25.78A35.2,35.2,0,0,0,89,100.59c16.86,0,31.2-10,35.27-29.24Z"/></g><g id="ZONE_PROTECTION"><rect class="cls-2" y="-11.04" width="453.76" height="122.32"/><rect class="cls-2" x="-73.24" y="-84.1" width="600.32" height="268.43"/><path class="cls-2" d="M246.43,116.18a39.07,39.07,0,0,0-37.89,0,34.6,34.6,0,0,0-13,13.26,38.61,38.61,0,0,0,0,36.76,34.68,34.68,0,0,0,13,13.26,36.52,36.52,0,0,0,18.8,4.88,37.24,37.24,0,0,0,19.06-4.88,34.83,34.83,0,0,0,13.09-13.22,38.3,38.3,0,0,0,0-36.8A35.08,35.08,0,0,0,246.43,116.18Zm-35.3,31.63c0-4.75,2.43-17.7,16.44-17.7S244,143.06,244,147.81c0,6.51-3.81,17.7-16.44,17.7C213.56,165.51,211.13,152.56,211.13,147.81Z"/><path class="cls-2" d="M509.28,43.13a39,39,0,0,0-37.89,0,34.74,34.74,0,0,0-13,13.25,38.6,38.6,0,0,0,0,36.77,34.61,34.61,0,0,0,13,13.26,36.58,36.58,0,0,0,18.8,4.87,37.33,37.33,0,0,0,19.06-4.87,34.86,34.86,0,0,0,13.09-13.23,36.87,36.87,0,0,0,4.71-18.43,36.78,36.78,0,0,0-4.71-18.37A35.12,35.12,0,0,0,509.28,43.13ZM474,74.75c0-4.75,2.44-17.7,16.45-17.7s16.44,13,16.44,17.7c0,6.51-3.81,17.7-16.44,17.7C476.41,92.45,474,79.5,474,74.75Z"/><path class="cls-2" d="M-17.72,43.13a36.91,36.91,0,0,0-19-4.91,36.63,36.63,0,0,0-18.9,4.91,34.72,34.72,0,0,0-13,13.25,37.25,37.25,0,0,0-4.64,18.37,37.23,37.23,0,0,0,4.67,18.4,34.71,34.71,0,0,0,13,13.26,36.55,36.55,0,0,0,18.79,4.87,37.31,37.31,0,0,0,19.06-4.87A34.89,34.89,0,0,0-4.62,93.18,37,37,0,0,0,.08,74.75a36.88,36.88,0,0,0-4.7-18.37A35.15,35.15,0,0,0-17.72,43.13ZM-53,74.75c0-4.75,2.44-17.7,16.44-17.7s16.44,13,16.44,17.7c0,6.51-3.81,17.7-16.44,17.7C-50.58,92.45-53,79.5-53,74.75Z"/></g></svg>