<svg xmlns="http://www.w3.org/2000/svg" viewBox="0 0 124.31 73.06"><defs><style>.cls-1{fill:#001944;}.cls-2{fill:none;}</style></defs><g id="LOGO"><path class="cls-1" d="M89.11,18.89A17.24,17.24,0,0,1,98,21.15a13.18,13.18,0,0,1,5.64,7h20.68a36.89,36.89,0,0,0-6.59-14.45,33.76,33.76,0,0,0-12.17-10A36.71,36.71,0,0,0,89,0h-.47v18.9Z"/><path class="cls-2" d="M22.31,27.35a19.59,19.59,0,0,0-2.09,9.18,19.59,19.59,0,0,0,2.09,9.18A15.49,15.49,0,0,0,28.14,52a16.24,16.24,0,0,0,8.52,2.25A16.21,16.21,0,0,0,45.18,52,15.51,15.51,0,0,0,51,45.71a19.59,19.59,0,0,0,2.08-9.18A19.59,19.59,0,0,0,51,27.35a15.57,15.57,0,0,0-5.84-6.27,16.21,16.21,0,0,0-8.52-2.25,16.24,16.24,0,0,0-8.52,2.25A15.55,15.55,0,0,0,22.31,27.35Z"/><path class="cls-2" d="M22.31,27.35a19.59,19.59,0,0,0-2.09,9.18,19.59,19.59,0,0,0,2.09,9.18A15.49,15.49,0,0,0,28.14,52a16.24,16.24,0,0,0,8.52,2.25A16.21,16.21,0,0,0,45.18,52,15.51,15.51,0,0,0,51,45.71a19.59,19.59,0,0,0,2.08-9.18A19.59,19.59,0,0,0,51,27.35a15.57,15.57,0,0,0-5.84-6.27,16.21,16.21,0,0,0-8.52-2.25,16.24,16.24,0,0,0-8.52,2.25A15.55,15.55,0,0,0,22.31,27.35Z"/><path class="cls-1" d="M4.67,54.93c.11.19.24.38.35.57L19,4.16c-.47.24-.93.48-1.39.75A34.68,34.68,0,0,0,6.33,15.44L2,49A37.42,37.42,0,0,0,4.67,54.93Z"/><path class="cls-1" d="M16.86,67.68,29.13,52.52q-.49-.26-1-.54A15.65,15.65,0,0,1,24.61,49L14.39,66C15.18,66.59,16,67.15,16.86,67.68Z"/><path class="cls-1" d="M20.39,39.37l-10,23.24c.75.75,1.54,1.46,2.36,2.15L23.3,47.35a16.58,16.58,0,0,1-1-1.64A18.53,18.53,0,0,1,20.39,39.37Z"/><path class="cls-1" d="M27.64,72.09,73.2,40c.08-1.12.13-2.27.13-3.48a19.36,19.36,0,0,1,2.19-9.48,15.2,15.2,0,0,1,13.19-8.14V10L51.39,44.93c-.12.26-.24.53-.37.78a15.35,15.35,0,0,1-8.53,7.54L23.59,70.92A34.25,34.25,0,0,0,27.64,72.09Z"/><path class="cls-1" d="M31.05,53.33,18.61,68.7c.95.51,1.92,1,2.91,1.42l17.11-16a18.14,18.14,0,0,1-2,.11A17.09,17.09,0,0,1,31.05,53.33Z"/><path class="cls-1" d="M28.24,21a16.69,16.69,0,0,1,8.56-2.2V1Z"/><path class="cls-1" d="M6.47,57.79A35.72,35.72,0,0,0,9,61L20.32,34.47a18.6,18.6,0,0,1,2-7.12,16.05,16.05,0,0,1,2.63-3.7L35.05,0A37.08,37.08,0,0,0,21.4,3Z"/><path class="cls-1" d="M43.51,72.47A35.42,35.42,0,0,0,63,62.47Z"/><path class="cls-1" d="M3.74,19.91A37.34,37.34,0,0,0,0,36.53a39.83,39.83,0,0,0,.66,7.31Z"/><path class="cls-1" d="M56.59,26.69,75.22,2.59a33.16,33.16,0,0,0-4.74,2.35,35.08,35.08,0,0,0-7.37,5.86c-4.12,4.71-10,12.08-10,25.73A22.15,22.15,0,0,1,52.66,41L88.71,7.3V0a37.76,37.76,0,0,0-10,1.4L58.17,27.91Z"/><path class="cls-1" d="M72.93,42.64l-42.55,30a40.26,40.26,0,0,0,6.08.46c.55,0,1.09,0,1.63,0l29-14.9A33.61,33.61,0,0,0,72.93,42.64Z"/><path class="cls-1" d="M103.63,43.82a14,14,0,0,1-5.54,8C95,54,82.87,58.15,75.52,46.08c-1.6-2.62-2.19-5.88-2.19-9.55h0a36.72,36.72,0,0,0-4.71-18.36,35.09,35.09,0,0,0-5.51-7.37,35.67,35.67,0,0,0-7.59-5.89A36.85,36.85,0,0,0,36.66,0V18.83a16.21,16.21,0,0,1,8.52,2.25A15.57,15.57,0,0,1,51,27.35a19.59,19.59,0,0,1,2.08,9.18h0a36.57,36.57,0,0,0,10,25.78A35.16,35.16,0,0,0,89,73.06c16.86,0,31.2-10.05,35.27-29.24Z"/></g><g id="ZONE_PROTECTION"><rect class="cls-2" y="-27.97" width="124.48" height="122.32"/><rect class="cls-2" x="-73.24" y="-101.03" width="271.05" height="268.43"/><path class="cls-2" d="M-17.72,26.19a36.91,36.91,0,0,0-19-4.91,36.63,36.63,0,0,0-18.9,4.91,34.67,34.67,0,0,0-13,13.26,37.22,37.22,0,0,0-4.64,18.36,37.2,37.2,0,0,0,4.67,18.4,34.71,34.71,0,0,0,13,13.26,36.45,36.45,0,0,0,18.79,4.87,37.21,37.21,0,0,0,19.06-4.87A34.89,34.89,0,0,0-4.62,76.24,37,37,0,0,0,.08,57.81a36.84,36.84,0,0,0-4.7-18.36A35.1,35.1,0,0,0-17.72,26.19ZM-53,57.81c0-4.75,2.44-17.7,16.44-17.7s16.44,13,16.44,17.7c0,6.51-3.81,17.7-16.44,17.7C-50.58,75.51-53,62.56-53,57.81Z"/></g></svg>