<?xml version="1.0" encoding="utf-8"?>
<!-- Generator: Adobe Illustrator 26.2.0, SVG Export Plug-In . SVG Version: 6.00 Build 0)  -->
<svg version="1.1" id="Calque_1" xmlns="http://www.w3.org/2000/svg" xmlns:xlink="http://www.w3.org/1999/xlink" x="0px" y="0px"
	 viewBox="0 0 271 268.4" style="enable-background:new 0 0 271 268.4;" xml:space="preserve">
<style type="text/css">
	.st0{fill:#FFFFFF;}
	.st1{fill:none;}
</style>
<g id="LOGO">
	<path class="st0" d="M162.4,119.9c3.1-0.1,6.2,0.7,8.9,2.2c2.6,1.6,4.6,4.1,5.6,7h20.7c-1.1-5.2-3.3-10.2-6.6-14.5
		c-3.2-4.2-7.4-7.7-12.2-10c-5.2-2.5-10.8-3.8-16.6-3.7h-0.5v18.9L162.4,119.9z"/>
	<path class="st1" d="M95.6,128.4c-2.8,5.8-2.8,12.6,0,18.4c1.3,2.6,3.3,4.8,5.8,6.3c5.3,3,11.7,3,17,0c2.5-1.5,4.5-3.7,5.8-6.3
		c2.8-5.8,2.8-12.6,0-18.4c-1.3-2.6-3.3-4.8-5.8-6.3c-5.3-3-11.7-3-17,0C98.9,123.6,96.9,125.8,95.6,128.4z"/>
	<path class="st1" d="M95.6,128.4c-2.8,5.8-2.8,12.6,0,18.4c1.3,2.6,3.3,4.8,5.8,6.3c5.3,3,11.7,3,17,0c2.5-1.5,4.5-3.7,5.8-6.3
		c2.8-5.8,2.8-12.6,0-18.4c-1.3-2.6-3.3-4.8-5.8-6.3c-5.3-3-11.7-3-17,0C98.9,123.6,96.9,125.8,95.6,128.4z"/>
	<path class="st0" d="M90.1,168.7l12.3-15.1c-0.3-0.2-0.7-0.4-1-0.6c-1.3-0.8-2.5-1.8-3.5-2.9L87.6,167
		C88.4,167.6,89.2,168.2,90.1,168.7z"/>
	<path class="st0" d="M93.6,140.4l-9.9,23.2c0.8,0.8,1.5,1.5,2.4,2.1l10.5-17.4c-0.4-0.5-0.7-1.1-1-1.6
		C94.5,144.8,93.9,142.6,93.6,140.4z"/>
	<path class="st0" d="M100.9,173.1l45.6-32.1c0.1-1.1,0.1-2.3,0.1-3.5c-0.1-3.3,0.7-6.6,2.2-9.5c2.6-4.9,7.7-8,13.2-8.1v-8.9
		L124.6,146c-0.1,0.3-0.2,0.5-0.4,0.8c-1.3,2.6-3.3,4.8-5.8,6.3c-0.8,0.5-1.8,0.9-2.7,1.3L96.8,172
		C98.2,172.5,99.5,172.8,100.9,173.1z"/>
	<path class="st0" d="M77.9,156c0.1,0.2,0.2,0.4,0.3,0.6l14-51.3c-0.5,0.2-0.9,0.5-1.4,0.8c-4.5,2.6-8.4,6.2-11.3,10.5L75.3,150
		C76,152.1,76.9,154.1,77.9,156z"/>
	<path class="st0" d="M104.3,154.4l-12.4,15.4c1,0.5,1.9,1,2.9,1.4l17.1-16c-0.6,0.1-1.3,0.1-2,0.1C108,155.3,106.1,155,104.3,154.4
		z"/>
	<path class="st0" d="M101.5,122.1c2.6-1.5,5.6-2.2,8.6-2.2v-17.8L101.5,122.1z"/>
	<path class="st0" d="M79.7,158.8c0.8,1.1,1.6,2.2,2.5,3.2l11.4-26.5c0.2-2.5,0.9-4.9,2-7.1c0.7-1.3,1.6-2.6,2.6-3.7l10.1-23.6
		c-4.7,0.1-9.3,1.1-13.7,3L79.7,158.8z"/>
	<path class="st0" d="M77,120.9c-2.5,5.2-3.8,10.9-3.7,16.6c0,2.5,0.2,4.9,0.7,7.3L77,120.9z"/>
	<path class="st0" d="M116.8,173.5c7.4-1.2,14.2-4.7,19.4-10L116.8,173.5z"/>
	<path class="st0" d="M129.8,127.7l18.6-24.1c-1.6,0.7-3.2,1.4-4.7,2.3c-2.7,1.6-5.2,3.6-7.4,5.9c-4.1,4.7-10,12.1-10,25.7
		c0,1.5-0.1,3-0.4,4.5l36-33.7V101c-3.4,0-6.7,0.5-10,1.4l-20.5,26.5L129.8,127.7z"/>
	<path class="st0" d="M146.2,143.7l-42.6,30c2,0.3,4,0.4,6.1,0.4c0.6,0,1.1,0,1.6,0l29-14.9C143.5,154.6,145.6,149.3,146.2,143.7z"
		/>
	<path class="st0" d="M176.9,144.9c-0.8,3.2-2.8,6.1-5.5,8c-3.1,2.2-15.2,6.3-22.6-5.7c-1.6-2.6-2.2-5.9-2.2-9.6l0,0
		c0.1-6.4-1.6-12.8-4.7-18.4c-1.5-2.7-3.4-5.2-5.5-7.4c-2.3-2.3-4.8-4.3-7.6-5.9c-5.7-3.3-12.2-5-18.9-5v18.8c3-0.1,5.9,0.7,8.5,2.3
		c2.5,1.5,4.5,3.7,5.8,6.3c1.4,2.8,2.1,6,2.1,9.2l0,0c-0.2,9.6,3.4,18.8,10,25.8c6.8,7,16.2,10.9,25.9,10.7
		c16.9,0,31.2-10,35.3-29.2L176.9,144.9z"/>
</g>
</svg>
